<svg xmlns="http://www.w3.org/2000/svg" width="50" height="50" viewBox="0 0 50 50">
    <g fill="none" fill-rule="evenodd">
        <g fill="#303C42">
            <g>
                <g>
                    <g>
                        <path d="M25 3.571C13.184 3.571 3.571 13.184 3.571 25c0 11.816 9.613 21.429 21.429 21.429 11.816 0 21.429-9.613 21.429-21.429 0-11.816-9.613-21.429-21.429-21.429m0 3.572c9.862 0 17.857 7.994 17.857 17.857 0 9.862-7.995 17.857-17.857 17.857-9.863 0-17.857-7.995-17.857-17.857 0-9.863 7.994-17.857 17.857-17.857" transform="translate(-640 -1156) translate(0 1016) translate(0 120) translate(640 20)"/>
                        <path fill-rule="nonzero" d="M25.432 14.536v-3.822l-5.79 5.733 5.79 5.732v-3.822c2.233-.004 4.308 1.138 5.483 3.018 1.175 1.88 1.281 4.229.281 6.205l2.805 2.777c2.093-3.127 2.282-7.14.491-10.446-1.79-3.307-5.27-5.371-9.06-5.375m-.864 17.107c-2.233.004-4.308-1.138-5.483-3.018-1.175-1.88-1.281-4.229-.281-6.205l-2.805-2.777c-2.093 3.127-2.282 7.14-.491 10.446 1.79 3.307 5.27 5.371 9.06 5.375v3.822l5.79-5.733-5.79-5.732v3.822z" transform="translate(-640 -1156) translate(0 1016) translate(0 120) translate(640 20) rotate(-60 25 25)"/>
                    </g>
                </g>
            </g>
        </g>
    </g>
</svg>
