<svg xmlns="http://www.w3.org/2000/svg" xmlns:xlink="http://www.w3.org/1999/xlink" width="88" height="88" viewBox="0 0 88 88">
    <defs>
        <circle id="juxd83fjaa" cx="20" cy="20" r="20"/>
    </defs>
    <g fill="none" fill-rule="evenodd">
        <g>
            <g>
                <g>
                    <g>
                        <g transform="translate(-1466.000000, -583.000000) translate(930.000000, 166.000000) translate(8.000000, 417.000000) translate(528.000000, 0.000000) translate(20.000000, 20.000000) translate(4.000000, 4.000000)">
                            <mask id="nddg2md7wb" fill="#fff">
                                <use xlink:href="#juxd83fjaa"/>
                            </mask>
                            <circle cx="20" cy="20" r="18.5" stroke="#222" stroke-width="3"/>
                            <g mask="url(#nddg2md7wb)">
                                <g>
                                    <path stroke="#222" stroke-width="2.5" d="M21.097 12.795l6.614 4.806-2.526 7.776h-8.176L14.482 17.6l6.615-4.806z" transform="translate(-1.096783, 0.250000)"/>
                                    <path fill="#222" d="M16.304 24.287l2.048 1.434-4.054 5.602 2.051 7.656-2.414.647-2.044-7.627L4.347 32v-2.5l8.185-.001 3.772-5.212zm9.886-.08l3.707 5.293h8.45V32h-7.543l-2.042 7.626-2.415-.647 1.974-7.37-4.179-5.968 2.048-1.434zM8.847 6.75l-.001 7.395 5.788 2.106-.855 2.35-6.232-2.269-6.451 3.147L0 17.232l6.346-3.095V6.75h2.5zm27.25 0l-.001 7.463 6.19 3.02-1.096 2.246-6.433-3.138-6.205 2.26-.855-2.35 5.899-2.147V6.75h2.5zM26.586 0l1.203 1.597-5.443 4.101v8.052h-2.5V5.93l-5.75-4.333L15.3 0l5.643 4.251L26.586 0z" transform="translate(-1.096783, 0.250000)"/>
                                </g>
                            </g>
                        </g>
                    </g>
                </g>
            </g>
        </g>
    </g>
</svg>
