<svg xmlns="http://www.w3.org/2000/svg" width="88" height="88" viewBox="0 0 88 88">
    <g fill="none" fill-rule="evenodd">
        <g stroke="#222">
            <g>
                <g>
                    <g>
                        <g transform="translate(-1378.000000, -583.000000) translate(930.000000, 166.000000) translate(8.000000, 417.000000) translate(440.000000, 0.000000) translate(20.000000, 20.000000) translate(4.000000, 5.956522)">
                            <circle cx="31.5" cy="33" r="3.25" fill="#F8F8F8" stroke-width="2.5"/>
                            <circle cx="8.5" cy="33" r="3.25" fill="#F8F8F8" stroke-width="2.5"/>
                            <path fill="#FFF" stroke-width="3" d="M24.126 0c6.281 0 11.579 5.386 12.354 12.561.113 1.041.28 1.62.525 1.986C38.657 14.545 40 15.889 40 17.545V29c0 1.657-1.343 3-3 3H3c-1.657 0-3-1.343-3-3V17.545c0-1.656 1.343-3 3-3l.14.002c.158-.442.285-1.104.38-1.986C4.283 5.498 9.428.17 15.58.004L15.875 0h8.252z"/>
                            <circle cx="8.5" cy="24" r="2.25" fill="#F8F8F8" stroke-width="2.5"/>
                            <circle cx="31.5" cy="24" r="2.25" fill="#F8F8F8" stroke-width="2.5"/>
                            <path stroke-width="2.5" d="M23.56 5.25c1.614 0 3.114.57 4.289 1.537 1.175.966 2.024 2.329 2.335 3.911h0l.796 4.052H9.021l.802-4.058c.312-1.581 1.162-2.942 2.336-3.907 1.175-.965 2.674-1.535 4.286-1.535h0z"/>
                        </g>
                    </g>
                </g>
            </g>
        </g>
    </g>
</svg>
