<svg xmlns="http://www.w3.org/2000/svg" width="88" height="88" viewBox="0 0 88 88">
    <g fill="none" fill-rule="evenodd">
        <g>
            <g>
                <g>
                    <g>
                        <g>
                            <path stroke="#3E8AE9" stroke-width="3" d="M38.797 15.76l-1.216 5.209c-.188.788-.634 1.46-1.236 1.936-.601.475-1.359.753-2.169.753h0-3.035l1.881-7.897h5.775z" transform="translate(-487.000000, -583.000000) translate(127.000000, 166.000000) translate(8.000000, 417.000000) translate(352.000000, 0.000000) translate(20.000000, 20.000000) translate(4.500000, 4.000000)"/>
                            <path fill="#FFF" stroke="#3E8AE9" stroke-width="3" d="M33 12.5l.5 6.227c0 3.803-1.542 7.246-4.034 9.739-2.493 2.492-5.936 4.034-9.74 4.034h0-4.537c-3.73 0-7.11-1.49-9.578-3.91-2.471-2.42-4.029-5.768-4.108-9.48h0L1.5 13l31.5-.5z" transform="translate(-487.000000, -583.000000) translate(127.000000, 166.000000) translate(8.000000, 417.000000) translate(352.000000, 0.000000) translate(20.000000, 20.000000) translate(4.500000, 4.000000)"/>
                            <path fill="#3E8AE9" d="M4 37h27c.828 0 1.5.672 1.5 1.5S31.828 40 31 40H4c-.828 0-1.5-.672-1.5-1.5S3.172 37 4 37z" transform="translate(-487.000000, -583.000000) translate(127.000000, 166.000000) translate(8.000000, 417.000000) translate(352.000000, 0.000000) translate(20.000000, 20.000000) translate(4.500000, 4.000000)"/>
                            <g stroke="#3E8AE9" stroke-linecap="round" stroke-width="2.5">
                                <path d="M18.65 3.71c.689-.414 1.38-.62 2.07-.62 1.037 0 2.605 1.5 3.642 1.5.69 0 1.453-.294 2.288-.88" transform="translate(-487.000000, -583.000000) translate(127.000000, 166.000000) translate(8.000000, 417.000000) translate(352.000000, 0.000000) translate(20.000000, 20.000000) translate(4.500000, 4.000000) translate(5.000000, 0.000000) translate(22.649519, 3.839102) rotate(-60.000000) translate(-22.649519, -3.839102)"/>
                                <path d="M8.65 3.71c.689-.414 1.38-.62 2.07-.62 1.037 0 2.605 1.5 3.642 1.5.69 0 1.453-.294 2.288-.88" transform="translate(-487.000000, -583.000000) translate(127.000000, 166.000000) translate(8.000000, 417.000000) translate(352.000000, 0.000000) translate(20.000000, 20.000000) translate(4.500000, 4.000000) translate(5.000000, 0.000000) translate(12.649519, 3.839102) rotate(-60.000000) translate(-12.649519, -3.839102)"/>
                                <path d="M-1.35 3.71c.689-.414 1.38-.62 2.07-.62 1.037 0 2.605 1.5 3.642 1.5.69 0 1.453-.294 2.288-.88" transform="translate(-487.000000, -583.000000) translate(127.000000, 166.000000) translate(8.000000, 417.000000) translate(352.000000, 0.000000) translate(20.000000, 20.000000) translate(4.500000, 4.000000) translate(5.000000, 0.000000) translate(2.649519, 3.839102) rotate(-60.000000) translate(-2.649519, -3.839102)"/>
                            </g>
                        </g>
                    </g>
                </g>
            </g>
        </g>
    </g>
</svg>
