<svg xmlns="http://www.w3.org/2000/svg" width="32" height="32" viewBox="0 0 32 32">
    <g fill="none" fill-rule="evenodd">
        <path fill="#6C788F" fill-rule="nonzero" d="M30.854 17.001l-1.769-2.808 1.05-3.151c.142-.43-.036-.901-.426-1.128l-2.86-1.66-.527-3.282c-.073-.447-.448-.781-.898-.8l-3.3-.13-1.98-2.66c-.27-.364-.756-.485-1.163-.29L16 2.52l-2.982-1.428c-.407-.194-.893-.073-1.163.29l-1.98 2.66-3.3.13c-.45.018-.825.352-.897.799l-.526 3.281L2.29 9.913c-.39.226-.569.697-.426 1.127l1.048 3.152L1.146 17c-.24.383-.18.884.146 1.198l2.383 2.3-.268 3.312c-.037.452.247.867.68.994l3.172.92 1.29 3.06c.176.418.62.653 1.061.561l3.236-.668 2.554 2.106c.174.142.387.216.6.216.213 0 .425-.074.6-.216l2.554-2.106 3.236.668c.439.094.884-.144 1.06-.561l1.291-3.06 3.172-.92c.433-.126.717-.542.68-.994l-.268-3.312 2.383-2.3c.325-.314.386-.815.146-1.198z"/>
        <path stroke="#FFF" stroke-width="3" d="M8.472 15.213L14.337 21 24.472 11"/>
    </g>
</svg>
