<svg xmlns="http://www.w3.org/2000/svg" width="40" height="40" viewBox="0 0 40 40">
    <g fill="#222" fill-rule="evenodd">
        <path d="M30.68 31.848a8.333 8.333 0 0 1-5.919 2.445h-.015a8.332 8.332 0 0 1-5.925-2.466L8.441 21.41c-3.264-3.276-3.255-8.596.02-11.86l2.398-2.388 4.31 6.676-1.808 1.803a3.088 3.088 0 0 0-.007 4.363l6.91 6.936a3.09 3.09 0 0 0 4.364.007l1.81-1.802 6.638 4.314-2.396 2.389zm-4.509-9.262l-2.955 2.945a1.088 1.088 0 0 1-1.536-.003l-6.91-6.936a1.086 1.086 0 0 1 .003-1.535l2.955-2.943L11.2 4 7.05 8.134c-4.056 4.042-4.067 10.63-.025 14.688l10.381 10.417a10.317 10.317 0 0 0 7.338 3.054h.018c2.768 0 5.37-1.075 7.331-3.03l4.15-4.132-10.07-6.545zM26.426 13.123a6.998 6.998 0 0 0-5.733-1.65l.351 1.991c1.414-.216 2.906.147 4.063 1.162 1.18 1.037 1.734 2.51 1.676 3.968l2.021.034a6.997 6.997 0 0 0-2.378-5.505"/>
        <path d="M28.398 10.877a9.984 9.984 0 0 1 3.395 7.803l1.997.034c.088-3.441-1.289-6.898-4.073-9.34a11.974 11.974 0 0 0-9.89-2.811l.347 1.967a9.988 9.988 0 0 1 8.224 2.347"/>
    </g>
</svg>
