<svg xmlns="http://www.w3.org/2000/svg" width="32" height="32" viewBox="0 0 32 32">
    <g fill="#6C788F" fill-rule="evenodd">
        <path d="M16.6 27.491c-5.79 0-10.5-4.71-10.5-10.5s4.71-10.5 10.5-10.5 10.5 4.71 10.5 10.5-4.71 10.5-10.5 10.5m0-23c-6.893 0-12.5 5.607-12.5 12.5s5.607 12.5 12.5 12.5 12.5-5.607 12.5-12.5-5.607-12.5-12.5-12.5M10.602 3.62L9.428 2 3 6.655l1.174 1.62zM29.964 6.655L23.534 2l-1.173 1.62 6.429 4.655z"/>
        <path d="M17.6 9.85h-2v7.756l6.315 3.202.905-1.785-5.22-2.646z"/>
    </g>
</svg>
