<svg xmlns="http://www.w3.org/2000/svg" width="55" height="55" viewBox="0 0 55 55">
    <g fill="#FFF" fill-rule="evenodd">
        <path d="M36.366 37.787l-.507.287v3.501h-16v-3.659l-.49-.29C14.206 34.572 11 28.968 11 23c0-9.374 7.626-17 17-17 9.374 0 17 7.626 17 17 0 6.101-3.309 11.767-8.634 14.787M28 4C17.523 4 9 12.523 9 23c0 6.48 3.38 12.575 8.86 16.047v4.528h20V39.23C43.511 35.79 47 29.624 47 23c0-10.477-8.524-19-19-19M17.854 47.055h20.248v-2H17.854zM17.854 50.534h20.248v-2H17.854z"/>
        <path d="M22.78 9.672a14.632 14.632 0 0 0-7.684 7.783 14.447 14.447 0 0 0-.814 2.679l1.961.392c.157-.787.393-1.562.701-2.305a12.613 12.613 0 0 1 6.624-6.711c.721-.31 1.472-.551 2.234-.72l-.427-1.952c-.887.194-1.76.475-2.596.834"/>
    </g>
</svg>
