<svg xmlns="http://www.w3.org/2000/svg" width="40" height="40" viewBox="0 0 40 40">
    <g fill="#FFF" fill-rule="evenodd">
        <path d="M31.514 23.966l5.072 8.208-6.01-1.098-2.411 6.372-4.613-7.902-.092.023c3.316-.843 6.16-2.87 8.055-5.605v.002zm-23.028 0l.113.16c1.894 2.653 4.69 4.617 7.941 5.443l-.092-.023-4.613 7.902-2.411-6.372-6.01 1.098 5.072-8.208zM20 4c6.627 0 12 5.373 12 12s-5.373 12-12 12S8 22.627 8 16 13.373 4 20 4zm0 4l-2.351 4.764-5.257.764 3.804 3.708-.898 5.236L20 20l4.702 2.472-.898-5.236 3.804-3.708-5.257-.764L20 8z"/>
    </g>
</svg>
