<svg xmlns="http://www.w3.org/2000/svg" width="55" height="55" viewBox="0 0 55 55">
    <g fill="#FFF" fill-rule="evenodd">
        <path d="M38.2 4L17.79 17.633H4V37.43h13.79L38.2 51.064V4zM18.854 35.738V19.326L36.2 7.74v39.583L18.855 35.738zM6 35.43h10.856V19.633H6V35.43zM46.527 27.532a5.529 5.529 0 0 0-5.522-5.523v2a3.527 3.527 0 0 1 3.522 3.523 3.526 3.526 0 0 1-3.522 3.522v2a5.529 5.529 0 0 0 5.522-5.522"/>
        <path d="M41.005 17.742v2c4.295 0 7.789 3.494 7.789 7.79 0 4.295-3.494 7.79-7.79 7.79v2c5.398 0 9.79-4.392 9.79-9.79 0-5.398-4.392-9.79-9.79-9.79"/>
    </g>
</svg>
