<svg xmlns="http://www.w3.org/2000/svg" width="120" height="120" viewBox="0 0 120 120">
    <g fill="none" fill-rule="evenodd">
        <g>
            <path fill="#FFF" d="M0 0H720V1280H0z" transform="translate(-300 -370)"/>
            <path fill="#000" fill-opacity=".7" d="M0 0H720V1280H0z" transform="translate(-300 -370)"/>
            <g>
                <path fill="#FFF" d="M20 0h520c11.046 0 20 8.954 20 20v497c0 11.046-8.954 20-20 20H20c-11.046 0-20-8.954-20-20V20C0 8.954 8.954 0 20 0z" transform="translate(-300 -370) translate(80 230)"/>
                <g transform="translate(-300 -370) translate(80 230) translate(220 140)">
                    <path fill="#000" fill-rule="nonzero" d="M89.028 22.35c-.4 0-.774-.1-1.15-.275C78.308 17.125 69.985 15 60.038 15c-9.922 0-19.27 2.375-27.842 7.05-1.225.65-2.724.225-3.399-1-.65-1.225-.225-2.725 1-3.4C39.118 12.575 49.29 10 60.036 10c10.648 0 19.945 2.35 30.142 7.625 1.225.625 1.7 2.15 1.075 3.375-.45.85-1.325 1.35-2.225 1.35zM17.5 48.6c-.5 0-1-.15-1.45-.45-1.124-.8-1.399-2.35-.6-3.475 4.95-7 11.273-12.5 18.77-16.375 15.72-8.125 35.815-8.15 51.56-.05 7.473 3.85 13.771 9.3 18.745 16.25.8 1.125.55 2.675-.575 3.475-1.125.8-2.7.55-3.499-.575-4.499-6.3-10.197-11.25-16.945-14.7-14.346-7.375-32.665-7.35-46.986.05-6.773 3.5-12.497 8.475-16.97 14.825-.5.675-1.275 1.025-2.05 1.025zm31.266 60.325c-.65 0-1.274-.25-1.774-.75-4.324-4.375-6.673-7.15-10.047-13.175-3.45-6.15-5.274-13.675-5.274-21.725 0-14.85 12.696-26.95 28.317-26.95 15.62 0 28.317 12.075 28.317 26.95 0 1.375-1.125 2.5-2.5 2.5-1.374 0-2.499-1.125-2.499-2.5 0-12.1-10.447-21.95-23.318-21.95-12.846 0-23.318 9.85-23.318 21.95 0 7.2 1.6 13.85 4.623 19.275 3.224 5.75 5.374 8.225 9.223 12.1.974.975.974 2.575-.025 3.525-.45.525-1.1.75-1.725.75zm35.815-9.25c-5.948 0-11.172-1.5-15.496-4.425C61.661 90.2 57.213 82 57.213 73.3c0-1.375 1.124-2.5 2.499-2.5s2.5 1.125 2.5 2.5c0 7.025 3.623 13.675 9.696 17.8 3.524 2.4 7.673 3.575 12.672 3.575 1.2 0 3.224-.125 5.223-.475 1.35-.25 2.65.675 2.9 2.025.25 1.35-.675 2.65-2.025 2.9-2.924.525-5.398.55-6.098.55zM73.858 109.9c-7.973-2.175-13.171-5.125-18.57-10.5-6.973-6.95-10.822-16.225-10.822-26.1 0-8.125 6.898-14.725 15.396-14.725 8.497 0 15.395 6.6 15.395 14.725 0 5.35 4.674 9.725 10.397 9.725 5.724 0 10.397-4.35 10.397-9.725 0-18.85-16.245-34.175-36.214-34.175-14.22 0-27.192 7.9-33.04 20.15-1.95 4.05-2.925 8.775-2.925 14.025 0 3.9.35 10.05 3.324 18.025.475 1.3-.174 2.725-1.474 3.225-1.3.475-2.724-.175-3.224-1.475-2.45-6.575-3.65-13.025-3.65-19.775 0-6 1.15-11.45 3.425-16.175 6.673-13.95 21.419-22.975 37.539-22.975 22.718 0 41.213 17.575 41.213 39.175 0 8.125-6.923 14.725-15.396 14.725-8.472 0-15.395-6.6-15.395-14.725 0-5.35-4.674-9.725-10.397-9.725S49.44 67.95 49.44 73.325c0 8.525 3.324 16.55 9.347 22.55 4.724 4.7 9.323 7.3 16.37 9.225 1.325.375 2.125 1.75 1.75 3.075-.3 1.1-1.3 1.825-2.4 1.825-.224 0-.45-.025-.65-.1z"/>
                    <circle cx="95" cy="94" r="20" fill="#000"/>
                    <path fill="#FFF" fill-rule="nonzero" d="M92.319 98.896L87.199 93.775 85 95.974 92.319 103.293 106.414 89.199 104.215 87z"/>
                </g>
            </g>
        </g>
    </g>
</svg>
