<svg xmlns="http://www.w3.org/2000/svg" width="56" height="56" viewBox="0 0 56 56">
    <g fill="none" fill-rule="evenodd">
        <g fill="#FFF">
            <g>
                <g>
                    <g>
                        <path d="M28.614 41.786c2.391-2.517 4.243-6.457 5.24-11.24h7.198c-2.33 5.314-6.86 9.447-12.438 11.24zM3.748 30.546h7.198c.997 4.783 2.849 8.723 5.24 11.24-5.578-1.793-10.108-5.926-12.438-11.24zm-.736-14.358h7.585c-.3 1.968-.472 4.045-.472 6.212 0 2.129.166 4.171.457 6.11H2.975c-.607-1.931-.94-3.982-.94-6.11 0-2.167.348-4.252.977-6.212zM16.186 3.014c-2.374 2.498-4.219 6.4-5.22 11.138H3.797c2.344-5.264 6.849-9.357 12.389-11.138zm6.213-.978c4.083 0 7.692 5.055 9.32 12.116H13.08C14.71 7.09 18.318 2.036 22.4 2.036zM12.655 28.51c-.317-1.938-.493-3.991-.493-6.109 0-2.155.183-4.243.513-6.212h19.45c.329 1.97.513 4.057.513 6.212 0 2.118-.176 4.171-.493 6.11h-19.49zM22.4 42.764c-4.102 0-7.728-5.102-9.342-12.219h18.686c-1.614 7.117-5.24 12.219-9.344 12.219zM42.763 22.4c0 2.128-.33 4.179-.938 6.11h-7.607c.29-1.939.457-3.981.457-6.11 0-2.167-.171-4.244-.472-6.212h7.585c.629 1.96.975 4.045.975 6.212zm-1.76-8.248h-7.17c-1-4.738-2.845-8.64-5.219-11.138 5.54 1.78 10.045 5.874 12.389 11.138zM22.399 0C10.05 0 0 10.048 0 22.4c0 12.352 10.05 22.4 22.4 22.4 12.352 0 22.4-10.048 22.4-22.4C44.8 10.048 34.751 0 22.4 0z" transform="translate(-50 -480) translate(0 74) translate(50 406) translate(6.11 5.09)"/>
                    </g>
                </g>
            </g>
        </g>
    </g>
</svg>
