<svg xmlns="http://www.w3.org/2000/svg" width="32" height="32" viewBox="0 0 32 32">
    <g fill="none" fill-rule="evenodd">
        <path stroke="#6C788F" stroke-width="2" d="M2 3h28v19H2z"/>
        <path fill="#6C788F" fill-rule="nonzero" d="M16.152 15.224c1.12 0 2.256-.384 3.136-.992l-.8-1.44c-.64.4-1.28.624-2.016.624-1.328 0-2.288-.768-2.48-2.24h5.52c.064-.208.112-.64.112-1.072 0-2.48-1.28-4.288-3.744-4.288-2.144 0-4.176 1.808-4.176 4.72 0 2.944 1.952 4.688 4.448 4.688zm-2.192-5.6c.176-1.312 1.008-1.984 1.952-1.984 1.152 0 1.696.768 1.696 1.984H13.96z"/>
        <path stroke="#6C788F" stroke-width="2" d="M12 22.091v5M7 28h18M20 22.091v5M3 18h26"/>
    </g>
</svg>
