<svg xmlns="http://www.w3.org/2000/svg" width="118" height="38" viewBox="0 0 118 38">
    <g fill="#FFF" fill-rule="evenodd">
        <path d="M52.656 5.604c-.39-.24-.808-.459-1.254-.658-.446-.2-.903-.37-1.372-.512-.47-.143-.938-.252-1.41-.332-.47-.08-.923-.12-1.357-.12-.577 0-1.108.05-1.594.15-.488.103-.907.257-1.26.464-.354.205-.63.463-.83.774-.198.31-.297.67-.297 1.082 0 .308.046.582.135.826.09.244.212.461.367.656.155.192.335.365.536.52.2.154.413.295.636.424.54.308 1.104.615 1.693.927.589.309 1.178.622 1.763.932.584.31 1.153.623 1.703.934.547.314 1.053.625 1.518.933.62.411 1.145.842 1.573 1.294.428.453.775.929 1.042 1.429.266.502.459 1.026.576 1.577.116.55.176 1.123.176 1.72 0 .86-.122 1.639-.366 2.337-.246.7-.587 1.322-1.025 1.867-.436.547-.953 1.02-1.552 1.422-.6.398-1.25.728-1.953.986-.705.258-1.444.45-2.223.575-.778.128-1.567.189-2.367.189-.769 0-1.533-.041-2.292-.127-.76-.086-1.517-.24-2.273-.453-.378-.11-.742-.23-1.093-.36-.352-.128-.661-.29-.93-.484-.269-.195-.486-.432-.647-.72-.161-.284-.242-.639-.242-1.063 0-.332.062-.625.182-.877s.287-.465.502-.637c.213-.172.465-.301.755-.387.287-.086.595-.13.923-.13.317 0 .629.044.934.126.308.084.61.176.908.282.638.214 1.269.365 1.889.455.62.088 1.18.136 1.682.136.483 0 .965-.041 1.442-.117.478-.076.905-.215 1.284-.414.376-.2.684-.473.92-.822.235-.346.353-.795.353-1.342 0-.274-.042-.529-.124-.756-.085-.227-.197-.434-.337-.623-.139-.186-.3-.354-.482-.506-.184-.152-.378-.29-.582-.42-.255-.16-.563-.342-.926-.543-.362-.203-.746-.412-1.153-.633-.406-.217-.819-.437-1.24-.658-.422-.223-.82-.43-1.195-.627-.376-.199-.713-.377-1.01-.54-.298-.163-.527-.294-.689-.392-.62-.385-1.18-.79-1.682-1.207-.502-.418-.93-.88-1.283-1.39-.354-.505-.626-1.075-.819-1.71C38.097 8.43 38 7.706 38 6.895c0-.873.124-1.65.372-2.328.248-.68.591-1.274 1.027-1.784.438-.51.95-.943 1.54-1.3.589-.358 1.225-.643 1.911-.862.684-.217 1.4-.375 2.143-.476C45.737.047 46.481 0 47.225 0c.75 0 1.48.039 2.187.123.707.082 1.38.2 2.023.35.64.15 1.242.33 1.802.541.562.207 1.075.437 1.54.68l-2.12 3.91zM64.396.295v14.862c0 .77.017 1.451.05 2.043.036.594.103 1.119.206 1.574.099.452.235.85.405 1.184.17.334.392.627.668.879.265.246.55.444.852.594.301.154.607.266.918.346.31.08.62.136.928.162.309.027.602.041.879.041.251 0 .526-.026.824-.078.3-.05.601-.133.903-.24.3-.106.596-.243.885-.413.29-.168.554-.371.792-.605.252-.246.453-.53.6-.856.149-.328.262-.715.34-1.168.08-.45.13-.975.15-1.571.024-.597.034-1.287.034-2.076V2.387c0-.385.065-.727.193-1.025.128-.299.31-.55.543-.753.233-.201.505-.355.82-.455.316-.103.658-.154 1.03-.154.389 0 .741.057 1.06.168.319.109.591.266.815.473.227.207.403.457.525.752.123.295.184.627.184.994v12.475c0 .277-.002.564-.006.859-.002.295-.007.53-.013.709-.019.789-.09 1.55-.216 2.286-.128.74-.335 1.45-.625 2.14-.415.991-.945 1.813-1.589 2.47-.643.66-1.36 1.184-2.146 1.582-.787.397-1.623.678-2.51.844-.887.166-1.776.248-2.669.248-.698 0-1.415-.051-2.146-.152-.732-.1-1.451-.27-2.151-.506-.703-.237-1.371-.547-2.01-.928-.638-.38-1.213-.852-1.722-1.41-.446-.485-.81-.983-1.088-1.497-.28-.512-.501-1.047-.66-1.6-.162-.553-.273-1.13-.336-1.727-.063-.6-.098-1.226-.105-1.88-.006-.239-.008-.475-.008-.708V.295h5.396zM91.123 0l4.928 9.716c.187.378.4.803.64 1.28.237.48.489.992.755 1.54.265.546.541 1.122.825 1.726.284.602.568 1.215.851 1.834.284.619.562 1.24.834 1.865.271.626.527 1.234.769 1.828h.145c-.097-.917-.184-1.82-.258-2.705-.077-.886-.141-1.78-.195-2.687-.055-.906-.095-1.84-.121-2.8-.028-.96-.042-1.974-.042-3.044V0H105v22.378c0 .74-.099 1.323-.298 1.755-.145.312-.33.581-.557.81-.228.23-.482.417-.761.567-.28.152-.584.263-.906.338-.324.075-.654.112-.992.112-.689 0-1.331-.183-1.925-.548-.596-.364-1.113-.967-1.554-1.805l-4.094-7.774c-.35-.664-.706-1.354-1.069-2.07-.362-.714-.734-1.481-1.119-2.302-.382-.82-.777-1.703-1.186-2.653-.408-.95-.829-1.99-1.264-3.122h-.17c.102.967.193 1.942.275 2.926.08.981.149 1.946.203 2.9.055.953.097 1.887.123 2.796.028.91.04 1.782.04 2.611v6.294c0 .45-.046.83-.139 1.14-.094.309-.241.59-.44.838-.194.244-.435.44-.729.586-.292.148-.648.223-1.065.223-.416 0-.773-.075-1.069-.223-.296-.146-.54-.342-.732-.586-.2-.248-.345-.529-.435-.837-.09-.311-.137-.69-.137-1.14V0h6.123zM116 0v22.146c0 .46-.05.847-.148 1.166-.1.317-.252.604-.456.857-.203.253-.463.456-.777.606-.316.15-.687.225-1.119.225-.432 0-.805-.074-1.121-.225-.314-.15-.574-.353-.777-.606-.204-.253-.354-.54-.454-.857-.1-.32-.148-.706-.148-1.166V0h5zM9.302 25.317L7.562 26l.034-.314.094-.827.082-.784.59-5.024.082-.571c.032-.3.047-.59.047-.873 0-.723-.23-1.085-.691-1.085-.72 0-1.559.702-2.516 2.103-.957 1.403-1.51 2.739-1.659 4.006l-.299 2.686L1.573 26l.035-.314.094-.827.093-.784.6-5.192.071-.593c.055-.462.082-.836.082-1.119 0-.477-.124-.716-.375-.716-.589 0-1.223.634-1.903 1.902-.181-.142-.27-.266-.27-.369 0-.448.428-1.057 1.284-1.83C2.141 15.386 2.82 15 3.322 15c.67 0 1.006.41 1.006 1.23 0 .21-.018.49-.057.84l-.094.907-.097.76-.096.795.329-.493C6.063 16.346 7.692 15 9.199 15c.727 0 1.091.5 1.091 1.5 0 .17-.031.534-.094 1.085l-.117 1.029-.162 1.399c.726-1.44 1.586-2.635 2.582-3.586.996-.951 1.884-1.427 2.665-1.427.773 0 1.16.478 1.16 1.432 0 .41-.045.899-.135 1.466l-.623 4.151c-.139.858-.207 1.523-.207 1.993 0 .394.115.592.342.592.267 0 .602-.212 1.008-.637.405-.425.728-.906.972-1.444.213.134.319.257.319.37 0 .47-.438 1.1-1.313 1.891-.873.79-1.57 1.186-2.088 1.186-.666 0-.998-.425-.998-1.276 0-.537.085-1.369.258-2.495l.417-2.697c.014-.098.042-.31.082-.637.014-.136.042-.362.082-.683.037-.321.058-.567.058-.74 0-.633-.22-.95-.656-.95-.73 0-1.582.702-2.552 2.103-.97 1.403-1.528 2.739-1.676 4.006l-.312 2.686zM27.734 20.54c-.804 1.434-1.647 2.618-2.525 3.552-.88.934-1.6 1.401-2.157 1.401-.765 0-1.188-.785-1.266-2.357l-.084-1.622-.154-3.3-.037-.945c-.07-1.253-.306-1.88-.704-1.88-.62 0-1.225.574-1.814 1.718-.207-.14-.31-.292-.31-.456 0-.42.386-.966 1.159-1.634.773-.67 1.401-1.005 1.889-1.005.501 0 .856.22 1.063.66.207.44.343 1.252.407 2.435l.22 4.088c.079 1.557.332 2.336.762 2.336.643 0 1.44-.723 2.394-2.167.952-1.445 1.564-2.864 1.834-4.257l.462-2.382L31 14c-.27.685-.549 1.721-.836 3.106l-1.599 7.832c-.628 3.066-1.6 5.33-2.912 6.793C23.688 33.911 21.411 35 18.826 35c-.541 0-1.15-.118-1.826-.353l1.47-1.586c.747.327 1.528.49 2.34.49 1.656 0 2.897-.524 3.726-1.573.829-1.05 1.52-2.973 2.079-5.772l1.12-5.665z" transform="translate(0 1)"/>
    </g>
</svg>
