<svg xmlns="http://www.w3.org/2000/svg" width="55" height="55" viewBox="0 0 55 55">
    <path fill="#000" fill-rule="evenodd" d="M27.968 5L6 17.963l8.147 4.807L6 27.576l8.147 4.807L6 37.19l21.968 12.963L49.935 37.19l-8.145-4.807 8.145-4.807-8.146-4.806 8.146-4.807L27.968 5zM9.936 17.963L27.968 7.322 46 17.963l-18.032 10.64-18.032-10.64zm29.886 5.968L46 27.576 27.968 38.217 9.936 27.576l6.178-3.644 11.854 6.993 11.854-6.994zm0 9.613L46 37.19 27.968 47.831 9.936 37.19l6.177-3.646 11.855 6.996 11.854-6.996z"/>
</svg>
