<svg xmlns="http://www.w3.org/2000/svg" xmlns:xlink="http://www.w3.org/1999/xlink" width="357" height="220" viewBox="0 0 357 220">
    <defs>
        <path id="a" d="M0 260h380V0H0z"/>
    </defs>
    <g fill="none" fill-rule="evenodd">
        <path fill="#F4F7FD" d="M59.948 162.197h204.724V28.485H59.948z"/>
        <path stroke="#5E6E84" stroke-linejoin="round" d="M59.948 162.197h204.724V28.485H59.948z"/>
        <g transform="translate(-12 -20)">
            <path stroke="#5E6E84" stroke-linejoin="round" d="M221.608 106.527s-1.047-1.3-2.196-.85c-1.15.45-.13 4.674 2.633 4.674 0 0-.437-2.174-.437-3.824zM233.221 106.527s1.047-1.3 2.196-.85c1.15.45.13 4.674-2.633 4.674 0 0 .437-2.174.437-3.824z"/>
            <path fill="#5E6E84" d="M233.221 106.527s-1.122-4.905-4.334-4.905c-3.213 0-6.266 5.088-10.463.89-4.197-4.197 1.1-11.03 6.451-8.165 4.8 2.57 4.115 2.145 7.328 2.145 3.212 0 6.026 6.39 1.018 10.035"/>
            <path stroke="#5E6E84" stroke-linejoin="round" d="M229.975 114.838c4.28-2.533 3.076-11.533 3.076-11.533-.637-4.095-5.643-5.006-5.643-5.006s-5.005.911-5.642 5.006c0 0-1.3 9.71 3.597 11.797 0 0 2.28 1.45 4.612-.264z"/>
            <path stroke="#5E6E84" stroke-linejoin="round" d="M262.144 156.44l-15.347-26.831a9.067 9.067 0 0 0-5.906-4.352l-10.261-2.28v-8.612c-2.925 2.607-5.841.439-5.841.439v8.173s-10.042 3.085-13.194 5.907c-3.15 2.823-8.86 35.704-8.86 35.704h39.051l17.075-1.754c3.084-.318 4.822-3.702 3.283-6.393z"/>
            <path fill="#5E6E84" d="M231.484 164.588l1.24 2.632h19.064v-2.632z"/>
            <path stroke="#5E6E84" stroke-linejoin="round" d="M231.484 164.588l1.24 2.632h19.064v-2.632z"/>
            <path fill="#5E6E84" d="M231.484 164.588l-9.573-20.312h-30.333l10.814 22.944h30.333z"/>
            <path stroke="#5E6E84" stroke-linejoin="round" d="M231.484 164.588l-9.573-20.312h-30.333l10.814 22.944h30.333z"/>
            <path stroke="#5E6E84" stroke-linejoin="round" d="M230.237 161.942l18.449-6.193-7.05-17.767s-3.712-9.901 2.353-11.382M211.596 128.884l-.769 15.387"/>
            <path fill="#F4F7FD" d="M222.238 167.22h-34.086a6.315 6.315 0 0 0-5.985 4.299l-15.773 46.8h11.704l16.218-36.114h27.922V167.22z"/>
            <path stroke="#5E6E84" stroke-linejoin="round" d="M222.238 167.22h-34.086a6.315 6.315 0 0 0-5.985 4.299l-15.773 46.8h11.704l16.218-36.114h27.922V167.22z"/>
            <path fill="#F4F7FD" d="M251.714 167.22h-34.086a6.315 6.315 0 0 0-5.985 4.299l-15.773 46.8h11.704l16.218-36.114h16.083c6.539 0 11.839-5.3 11.839-11.84v-3.145z"/>
            <path stroke="#5E6E84" stroke-linejoin="round" d="M251.714 167.22h-34.086a6.315 6.315 0 0 0-5.985 4.299l-15.773 46.8h11.704l16.218-36.114h16.083c6.539 0 11.839-5.3 11.839-11.84v-3.145z"/>
            <path fill="#F4F7FD" d="M168.836 218.32l-3.524 9.606-13.303 7.413-.756 3.524 23.057-3.29 3.788-17.254z"/>
            <path stroke="#5E6E84" stroke-linejoin="round" d="M168.836 218.32l-3.524 9.606-13.303 7.413-.756 3.524 23.057-3.29 3.788-17.254z"/>
            <path fill="#F4F7FD" d="M197.946 218.32l-3.525 9.606-13.302 7.413-.756 3.524 23.057-3.29 3.787-17.254z"/>
            <path stroke="#5E6E84" stroke-linejoin="round" d="M197.946 218.32l-3.525 9.606-13.302 7.413-.756 3.524 23.057-3.29 3.787-17.254z"/>
            <mask id="b" fill="#fff">
                <use xlink:href="#a"/>
            </mask>
            <path fill="#F4F7FD" d="M71.948 63.428h204.724V48.484H71.948z" mask="url(#b)"/>
            <path stroke="#5E6E84" stroke-linejoin="round" d="M71.948 63.428h204.724V48.484H71.948z" mask="url(#b)"/>
            <path fill="#5E6E84" d="M261.728 63.428h14.944V48.484h-14.944z" mask="url(#b)"/>
            <path stroke="#FFF" stroke-linejoin="round" d="M272.935 52.22l-7.471 7.472M265.464 52.22l7.472 7.472" mask="url(#b)"/>
            <path stroke="#5E6E84" stroke-linejoin="round" d="M87.301 84.795h120V78.48h-120zM87.301 108.378h120v-6.316h-120zM87.301 131.96h59.463v-6.315H87.301zM219.858 124.687c.177.498 2.922 3.123 7.85 3.123 4.928 0 8.441-3.606 8.441-3.606" mask="url(#b)"/>
            <path fill="#F4F7FD" d="M93.977 49.015c0 11.755-9.53 21.285-21.285 21.285-11.754 0-21.283-9.53-21.283-21.285s9.529-21.284 21.283-21.284c11.756 0 21.285 9.53 21.285 21.284" mask="url(#b)"/>
            <path stroke="#5E6E84" stroke-linejoin="round" d="M93.977 49.015c0 11.755-9.53 21.285-21.285 21.285-11.754 0-21.283-9.53-21.283-21.285s9.529-21.284 21.283-21.284c11.756 0 21.285 9.53 21.285 21.284z" mask="url(#b)"/>
            <path fill="#5E6E84" d="M79.82 49.015L68.378 42.41v13.212zM33.612 144.277l-10.707 10.707L12.2 144.277l10.706-10.706z" mask="url(#b)"/>
            <path fill="#F4F7FD" d="M286.099 27.731a6.595 6.595 0 1 1-13.19 0 6.595 6.595 0 0 1 13.19 0" mask="url(#b)"/>
            <path stroke="#5E6E84" stroke-linejoin="round" d="M286.099 27.731a6.595 6.595 0 1 1-13.19 0 6.595 6.595 0 0 1 13.19 0z" mask="url(#b)"/>
            <path fill="#F4F7FD" d="M294.365 135.072h73.436V91.01h-73.436z" mask="url(#b)"/>
            <path stroke="#5E6E84" stroke-linejoin="round" d="M294.365 135.072h73.436V91.01h-73.436z" mask="url(#b)"/>
            <path fill="#F4F7FD" d="M299.872 126.81h4.59v-9.18h-4.59z" mask="url(#b)"/>
            <path stroke="#5E6E84" stroke-linejoin="round" d="M299.872 126.81h4.59v-9.18h-4.59z" mask="url(#b)"/>
            <path fill="#F4F7FD" d="M314.56 126.81h4.59v-14.688h-4.59z" mask="url(#b)"/>
            <path stroke="#5E6E84" stroke-linejoin="round" d="M314.56 126.81h4.59v-14.688h-4.59z" mask="url(#b)"/>
            <path fill="#F4F7FD" d="M307.216 126.81h4.59v-22.031h-4.59z" mask="url(#b)"/>
            <path stroke="#5E6E84" stroke-linejoin="round" d="M307.216 126.81h4.59v-22.031h-4.59z" mask="url(#b)"/>
            <path fill="#F4F7FD" d="M321.903 126.81h4.59v-5.508h-4.59z" mask="url(#b)"/>
            <path stroke="#5E6E84" stroke-linejoin="round" d="M321.903 126.81h4.59v-5.508h-4.59z" mask="url(#b)"/>
            <path fill="#F4F7FD" d="M359.942 105.342a13.834 13.834 0 0 0-2.66-2.926 13.702 13.702 0 0 0-8.758-3.145v4.59c5.062 0 9.18 4.118 9.18 9.179 0 5.063-4.118 9.18-9.18 9.18a9.15 9.15 0 0 1-6.487-2.691l-3.25 3.248c.49.49 1.027.93 1.585 1.342a13.68 13.68 0 0 0 5.377 2.411c.897.184 1.824.28 2.775.28.95 0 1.879-.096 2.775-.28a13.673 13.673 0 0 0 5.377-2.411 13.733 13.733 0 0 0 1.584-1.342 13.825 13.825 0 0 0 2.952-4.376 13.703 13.703 0 0 0 1.082-5.361c0-2.851-.867-5.501-2.352-7.698" mask="url(#b)"/>
            <path stroke="#5E6E84" stroke-linejoin="round" d="M359.942 105.342a13.834 13.834 0 0 0-2.66-2.926 13.702 13.702 0 0 0-8.758-3.145v4.59c5.062 0 9.18 4.118 9.18 9.179 0 5.063-4.118 9.18-9.18 9.18a9.15 9.15 0 0 1-6.487-2.691l-3.25 3.248c.49.49 1.027.93 1.585 1.342a13.68 13.68 0 0 0 5.377 2.411c.897.184 1.824.28 2.775.28.95 0 1.879-.096 2.775-.28a13.673 13.673 0 0 0 5.377-2.411 13.733 13.733 0 0 0 1.584-1.342 13.825 13.825 0 0 0 2.952-4.376 13.703 13.703 0 0 0 1.082-5.361c0-2.851-.867-5.501-2.352-7.698z" mask="url(#b)"/>
            <path fill="#F4F7FD" d="M339.345 113.04c0-5.062 4.118-9.179 9.179-9.179v-4.59a13.713 13.713 0 0 0-8.758 3.144 13.84 13.84 0 0 0-2.66 2.927 13.7 13.7 0 0 0-2.351 7.698 13.783 13.783 0 0 0 1.082 5.36 13.744 13.744 0 0 0 2.95 4.376l3.25-3.248a9.148 9.148 0 0 1-2.692-6.488" mask="url(#b)"/>
            <path stroke="#5E6E84" stroke-linejoin="round" d="M339.345 113.04c0-5.062 4.118-9.179 9.179-9.179v-4.59a13.713 13.713 0 0 0-8.758 3.144 13.84 13.84 0 0 0-2.66 2.927 13.7 13.7 0 0 0-2.351 7.698 13.783 13.783 0 0 0 1.082 5.36 13.744 13.744 0 0 0 2.95 4.376l3.25-3.248a9.148 9.148 0 0 1-2.692-6.488z" mask="url(#b)"/>
            <g mask="url(#b)">
                <path fill="#F4F7FD" d="M241.327 208.741h43.642"/>
                <path stroke="#5E6E84" stroke-linejoin="round" d="M241.327 208.741h43.642"/>
            </g>
            <g mask="url(#b)">
                <path fill="#F4F7FD" d="M291.5 208.741h5.572"/>
                <path stroke="#5E6E84" stroke-linejoin="round" d="M291.5 208.741h5.572"/>
            </g>
            <path stroke="#5E6E84" stroke-linejoin="round" d="M331.083 135.18v17.409h-54.411" mask="url(#b)"/>
            <g mask="url(#b)">
                <path fill="#FFF" d="M57.926 64.337L37.929 84.334"/>
                <path stroke="#5E6E84" stroke-linejoin="round" d="M57.926 64.337L37.929 84.334"/>
            </g>
        </g>
    </g>
</svg>
