<svg xmlns="http://www.w3.org/2000/svg" xmlns:xlink="http://www.w3.org/1999/xlink" width="144" height="44" viewBox="0 0 144 44">
    <defs>
        <path id="yogy59hoya" d="M0.467 0.296L20.724 0.296 20.724 31.462 0.467 31.462z"/>
    </defs>
    <g fill="none" fill-rule="evenodd">
        <path fill="#FFF" d="M0 0H720V1280H0z" transform="translate(-30 -180)"/>
        <g>
            <g transform="translate(-30 -180) translate(30 180) translate(46)">
                <mask id="igk8bbhq2b" fill="#fff">
                    <use xlink:href="#yogy59hoya"/>
                </mask>
                <path fill="#E1002A" d="M17.932 7.013c-.466-.287-.963-.55-1.495-.788-.532-.241-1.076-.445-1.636-.614-.558-.172-1.117-.303-1.679-.398-.561-.096-1.1-.145-1.618-.145-.687 0-1.32.061-1.898.182-.581.122-1.081.307-1.502.555-.422.245-.752.555-.988.928-.236.37-.355.803-.355 1.297 0 .368.055.698.16.99.11.292.255.552.439.786.184.23.399.437.637.623.24.185.493.354.76.509.642.368 1.314.737 2.016 1.11.702.371 1.403.747 2.1 1.118.697.37 1.375.746 2.03 1.12.652.376 1.255.75 1.81 1.117.739.494 1.364 1.01 1.874 1.553.51.543.923 1.112 1.24 1.711.318.602.547 1.231.688 1.892.138.658.209 1.346.209 2.06 0 1.032-.145 1.966-.436 2.803-.293.838-.7 1.584-1.221 2.237-.52.656-1.135 1.223-1.85 1.705-.714.477-1.49.872-2.326 1.181-.84.31-1.722.54-2.65.69-.926.153-1.867.227-2.82.227-.916 0-1.827-.05-2.73-.153-.907-.103-1.809-.287-2.71-.542-.45-.133-.884-.275-1.302-.433-.42-.152-.788-.346-1.109-.58-.32-.233-.578-.518-.77-.862-.192-.34-.288-.766-.288-1.274 0-.398.074-.75.216-1.052.143-.302.342-.557.598-.763.254-.207.555-.361.9-.464.342-.103.709-.155 1.1-.155.377 0 .75.052 1.113.15.368.1.727.211 1.082.339.76.255 1.511.436 2.25.545.74.106 1.407.162 2.005.162.576 0 1.15-.05 1.719-.14.568-.09 1.078-.258 1.528-.496.449-.24.816-.568 1.097-.985.28-.415.42-.953.42-1.61 0-.328-.048-.633-.147-.905-.1-.273-.234-.52-.401-.747-.165-.224-.358-.425-.574-.606-.22-.182-.451-.35-.695-.504-.303-.192-.67-.41-1.103-.65-.431-.244-.89-.495-1.374-.76-.483-.26-.975-.523-1.477-.788-.503-.268-.978-.516-1.424-.752-.448-.238-.85-.452-1.204-.648-.355-.195-.628-.352-.82-.47-.739-.461-1.406-.945-2.005-1.446-.598-.501-1.108-1.054-1.529-1.665-.42-.607-.746-1.29-.975-2.051C.582 10.4.467 9.533.467 8.56c0-1.047.148-1.978.444-2.79.295-.816.704-1.529 1.223-2.14.522-.612 1.133-1.13 1.835-1.557.702-.43 1.46-.771 2.278-1.034C7.062.78 7.914.59 8.8.47c.886-.118 1.772-.175 2.66-.175.893 0 1.762.048 2.604.148.843.098 1.645.24 2.411.42.764.18 1.48.395 2.147.648.67.248 1.28.523 1.835.816l-2.526 4.686z" mask="url(#igk8bbhq2b)"/>
            </g>
            <path fill="#E1002A" d="M79.206.363v18.292c0 .948.019 1.786.057 2.515.041.73.118 1.377.237 1.936.113.558.27 1.047.465 1.458.195.41.45.771.769 1.082.304.302.632.547.979.73.347.19.7.329 1.056.427.357.098.714.166 1.068.2.354.032.692.05 1.01.05.29 0 .605-.034.948-.096.344-.063.692-.164 1.039-.295.344-.131.685-.3 1.017-.51.333-.207.637-.456.911-.744.29-.302.521-.653.69-1.053.171-.404.301-.88.39-1.438.092-.554.15-1.2.174-1.934.027-.734.039-1.584.039-2.555V2.938c0-.475.074-.895.221-1.261.148-.368.357-.679.625-.928.267-.247.581-.436.943-.56C92.208.063 92.6 0 93.027 0c.449 0 .854.07 1.22.207.366.133.68.328.938.582.26.255.463.563.603.926.142.363.212.771.212 1.223v15.354c0 .34-.002.694-.007 1.057-.003.363-.007.653-.015.872-.021.971-.104 1.91-.248 2.815-.147.91-.386 1.785-.719 2.632-.477 1.22-1.087 2.232-1.827 3.041-.74.812-1.564 1.458-2.469 1.947-.904.49-1.866.834-2.885 1.039-1.02.204-2.042.305-3.07.305-.802 0-1.627-.063-2.469-.186-.841-.124-1.668-.334-2.473-.623-.808-.293-1.576-.674-2.312-1.143-.733-.469-1.393-1.049-1.98-1.735-.513-.597-.93-1.21-1.25-1.843-.324-.63-.577-1.289-.76-1.97-.186-.68-.314-1.389-.386-2.125-.072-.739-.113-1.508-.12-2.312-.008-.296-.01-.586-.01-.873V.363h6.206zM110.654 1l6.159 11.585c.234.45.5.957.8 1.525.297.573.612 1.184.944 1.837.332.652.677 1.337 1.032 2.058.354.718.709 1.449 1.063 2.187.356.737.703 1.478 1.042 2.224.34.745.66 1.47.962 2.179h.18c-.12-1.093-.229-2.17-.322-3.225-.095-1.056-.176-2.122-.243-3.204-.069-1.08-.119-2.194-.152-3.34-.035-1.143-.052-2.353-.052-3.628V1H128v26.681c0 .882-.124 1.578-.373 2.093-.181.372-.413.693-.697.966s-.601.497-.951.676c-.35.181-.73.313-1.132.403-.405.09-.818.134-1.24.134-.86 0-1.664-.22-2.406-.653-.745-.436-1.391-1.154-1.942-2.153l-5.118-9.268c-.438-.793-.883-1.616-1.336-2.468-.452-.852-.919-1.767-1.399-2.746-.478-.977-.97-2.03-1.482-3.164-.511-1.133-1.036-2.372-1.58-3.722h-.214c.129 1.153.242 2.316.345 3.489.1 1.17.186 2.32.254 3.459.068 1.136.12 2.249.154 3.332.035 1.086.05 2.125.05 3.114v7.505c0 .537-.058.989-.174 1.359-.118.368-.302.703-.551.999-.241.29-.543.524-.91.698-.366.177-.81.266-1.332.266-.52 0-.966-.09-1.335-.266-.37-.174-.675-.407-.916-.698-.25-.296-.43-.631-.544-1-.113-.37-.171-.821-.171-1.358V1h7.654zM141 1v27.461c0 .57-.06 1.05-.177 1.446-.12.393-.303.75-.547 1.062-.244.314-.556.565-.933.752-.379.187-.825.279-1.343.279s-.966-.092-1.345-.279c-.377-.187-.688-.438-.933-.752-.245-.313-.424-.669-.544-1.062-.12-.396-.178-.876-.178-1.446V1h6z" transform="translate(-30 -180) translate(30 180)"/>
            <path fill="#000" d="M11.37 31.13L9.24 32l.043-.4.114-1.053.101-.997.72-6.394.101-.727c.04-.38.058-.75.058-1.111 0-.92-.282-1.38-.845-1.38-.88 0-1.905.893-3.076 2.676C5.29 24.4 4.612 26.1 4.431 27.713l-.365 3.418L1.923 32l.042-.4.114-1.053.115-.997.733-6.608.087-.755c.067-.588.1-1.063.1-1.423 0-.608-.152-.912-.458-.912-.72 0-1.495.806-2.327 2.42-.22-.18-.329-.337-.329-.468 0-.57.524-1.346 1.569-2.33C2.616 18.493 3.446 18 4.059 18c.82 0 1.231.522 1.231 1.566 0 .267-.022.623-.07 1.07l-.115 1.153-.119.968-.117 1.01.402-.626C7.411 19.714 9.401 18 11.244 18c.888 0 1.333.637 1.333 1.91 0 .217-.039.678-.115 1.38l-.144 1.31-.198 1.78c.888-1.833 1.94-3.354 3.157-4.564S17.58 18 18.534 18c.945 0 1.418.608 1.418 1.823 0 .522-.056 1.143-.165 1.865l-.762 5.284c-.17 1.092-.253 1.938-.253 2.535 0 .502.14.755.417.755.328 0 .737-.27 1.233-.81.495-.542.89-1.155 1.188-1.838.26.17.39.326.39.47 0 .597-.535 1.399-1.605 2.407C19.328 31.497 18.477 32 17.843 32c-.814 0-1.22-.541-1.22-1.624 0-.683.104-1.742.316-3.175l.51-3.433c.016-.124.05-.394.1-.81.017-.173.05-.462.099-.87.046-.408.072-.722.072-.94 0-.807-.269-1.21-.802-1.21-.894 0-1.933.893-3.12 2.676-1.185 1.785-1.867 3.485-2.047 5.099l-.382 3.418z" transform="translate(-30 -180) translate(30 180)"/>
            <path fill="#000" d="M33.034 26.786c-.976 1.706-2 3.116-3.066 4.228-1.07 1.112-1.942 1.669-2.62 1.669-.928 0-1.442-.936-1.536-2.807l-.103-1.93-.187-3.93-.045-1.125c-.086-1.49-.37-2.237-.855-2.237-.753 0-1.486.682-2.202 2.045-.252-.167-.377-.348-.377-.543 0-.501.47-1.15 1.407-1.946.94-.797 1.702-1.196 2.295-1.196.608 0 1.038.262 1.29.786.251.524.416 1.49.495 2.899l.265 4.866c.097 1.854.404 2.781.927 2.781.78 0 1.75-.86 2.907-2.58 1.156-1.72 1.9-3.409 2.227-5.067l.562-2.836L37 19c-.328.815-.667 2.048-1.015 3.697l-1.942 9.325c-.762 3.65-1.942 6.346-3.536 8.087C28.12 42.703 25.356 44 22.217 44c-.658 0-1.397-.14-2.217-.42l1.784-1.888c.908.389 1.856.584 2.841.584 2.012 0 3.52-.625 4.526-1.873 1.006-1.25 1.846-3.54 2.524-6.872l1.36-6.745z" transform="translate(-30 -180) translate(30 180)"/>
        </g>
    </g>
</svg>
