<svg xmlns="http://www.w3.org/2000/svg" xmlns:xlink="http://www.w3.org/1999/xlink" width="180" height="78" viewBox="0 0 180 78">
    <defs>
        <path id="lz9f6qhmca" d="M0 0.05L51.527 0.05 51.527 23.443 0 23.443z"/>
    </defs>
    <g fill="none" fill-rule="evenodd">
        <g>
            <path fill="#FFF" d="M0 0H720V1280H0z" transform="translate(-270 -120)"/>
            <g>
                <path fill="#E0002B" d="M172.36 18.16c-2.252 0-4.077 1.864-4.077 4.165v26.27c0 2.3 1.825 4.163 4.076 4.163 2.252 0 4.077-1.864 4.077-4.164v-26.27c0-2.3-1.825-4.164-4.077-4.164M154.255 7.277h-11.864c-5.49 0-9.94 4.546-9.94 10.153v20.28c0 2.3 1.824 4.164 4.076 4.164s4.076-1.864 4.076-4.164V17.912c0-2.244 1.78-4.061 3.976-4.061h7.487c2.196 0 3.976 1.817 3.976 4.06v19.8c0 2.299 1.825 4.163 4.076 4.163 2.252 0 4.077-1.864 4.077-4.164V17.43c0-5.607-4.45-10.153-9.94-10.153m-29.97 10.883c-2.25 0-4.075 1.864-4.075 4.165v19.798c0 2.243-1.78 4.062-3.976 4.062h-7.487c-2.196 0-3.976-1.819-3.976-4.062V22.325c0-2.3-1.825-4.165-4.077-4.165-2.25 0-4.076 1.864-4.076 4.165v20.28c0 5.607 4.45 10.153 9.94 10.153h11.864c5.49 0 9.94-4.546 9.94-10.153v-20.28c0-2.3-1.825-4.165-4.076-4.165M82.97 27.76H70.316v-.001c-2.293 0-3.764-1.595-3.764-3.563 0-1.968 1.47-3.563 3.764-3.563h17.403c1.833 0 3.32-1.518 3.32-3.39 0-1.873-1.487-3.391-3.32-3.391H69.145c-5.96 0-10.333 4.63-10.333 10.344 0 5.714 4.373 10.344 10.333 10.344h12.34c2.292-.004 3.766 1.589 3.77 3.557.004 1.968-1.477 3.565-3.77 3.571h-18.36c-1.833 0-3.32 1.518-3.32 3.39 0 1.873 1.487 3.39 3.32 3.39H83.06c5.936-.042 10.276-4.666 10.264-10.365-.01-5.712-4.395-10.336-10.354-10.323" transform="translate(-270 -120) translate(270 120)"/>
                <g transform="translate(-270 -120) translate(270 120) translate(0 18.192)">
                    <mask id="it990rmupb" fill="#fff">
                        <use xlink:href="#lz9f6qhmca"/>
                    </mask>
                    <path fill="#60C0BD" d="M43.304 21.974c-.962 0-1.744-.766-1.744-1.707 0-.942.782-1.707 1.744-1.707.961 0 1.743.765 1.743 1.707 0 .94-.782 1.707-1.743 1.707zm0-4.884c-1.79 0-3.246 1.425-3.246 3.177s1.456 3.176 3.246 3.176 3.245-1.424 3.245-3.176c0-1.752-1.456-3.177-3.245-3.177zM48.969.05H37.638c-1.966 0-3.195 2.084-2.212 3.75l6.403 10.855c.655 1.11 2.294 1.11 2.95 0L51.18 3.8c.983-1.666-.246-3.75-2.212-3.75zM28.477 1.302c-.984-1.667-3.441-1.667-4.424 0l-6.808 11.541L10.435 1.3c-.983-1.666-3.44-1.666-4.423 0L.346 10.906c-.983 1.666.246 3.75 2.212 3.75H31.93c1.966 0 3.195-2.084 2.212-3.75l-5.665-9.604z" mask="url(#it990rmupb)"/>
                </g>
                <path fill="#60C0BD" d="M172.653 2.797c-2.494 0-4.524 2.01-4.524 4.48 0 2.47 2.03 4.481 4.524 4.481s4.524-2.01 4.524-4.48c0-2.472-2.03-4.481-4.524-4.481m0 11.757c-4.051 0-7.347-3.265-7.347-7.277 0-4.012 3.296-7.277 7.347-7.277S180 3.265 180 7.277c0 4.012-3.296 7.277-7.347 7.277" transform="translate(-270 -120) translate(270 120)"/>
                <g fill="#C8C9C9">
                    <path d="M41.394 5.81h-5.646c-.82 0-1.487-.644-1.487-1.437s.667-1.436 1.487-1.436h7.934c.839 0 1.52-.658 1.52-1.467 0-.811-.681-1.47-1.52-1.47h-7.934c-2.494 0-4.524 1.963-4.524 4.373 0 2.412 2.03 4.373 4.524 4.373h5.646c.821 0 1.488.644 1.488 1.437s-.667 1.435-1.488 1.435h-8.113c-.838 0-1.518.658-1.518 1.468 0 .81.68 1.468 1.518 1.468h8.113c2.495 0 4.524-1.962 4.524-4.371 0-2.411-2.03-4.373-4.524-4.373M60.891 0c-.858 0-1.555.659-1.555 1.47v8.186c0 1.081-.934 1.962-2.081 1.962H52.95c-1.147 0-2.082-.88-2.082-1.962V1.47c0-.811-.697-1.47-1.556-1.47-.86 0-1.557.659-1.557 1.47v8.186c0 2.7 2.33 4.898 5.195 4.898h4.305c2.864 0 5.194-2.198 5.194-4.898V1.47c0-.811-.697-1.47-1.558-1.47M82.194 0c-.76 0-1.378.657-1.378 1.468v11.618c0 .81.618 1.468 1.378 1.468.761 0 1.377-.657 1.377-1.468V1.468C83.571.657 82.955 0 82.194 0M73.785 0H69.48c-2.861 0-5.193 2.198-5.193 4.9v8.186c0 .81.697 1.468 1.556 1.468.86 0 1.557-.658 1.557-1.468V4.899c0-1.083.934-1.962 2.08-1.962h4.306c1.148 0 2.08.88 2.08 1.962v8.187c0 .81.699 1.468 1.557 1.468.86 0 1.558-.658 1.558-1.468V4.899C78.98 2.2 76.648 0 73.785 0M9.135 3.638c-1.064 0-2.027.514-2.705 1.333-.68-.82-1.642-1.333-2.707-1.333C1.67 3.638 0 5.538 0 7.876v5.529c0 1.532 2.034 1.532 2.034 0V7.876c0-2.543 3.38-2.544 3.38 0v5.529c0 1.532 2.032 1.532 2.032 0V7.876c0-2.54 3.38-2.544 3.38 0v5.529c0 1.532 2.031 1.532 2.031 0V7.876c0-2.338-1.67-4.238-3.722-4.238M25.237 3.893c-.525-.389-1.271-.282-1.665.239l-3.357 4.445-3.38-4.467c-.393-.52-1.137-.626-1.664-.237-.526.388-.633 1.126-.24 1.646l4.084 5.4v2.46c0 .648.532 1.175 1.19 1.175.656 0 1.189-.527 1.189-1.176v-2.432l4.084-5.407c.393-.52.285-1.256-.24-1.646" transform="translate(-270 -120) translate(270 120) translate(55.102 61.854)"/>
                </g>
            </g>
        </g>
    </g>
</svg>
