<svg xmlns="http://www.w3.org/2000/svg" width="88" height="88" viewBox="0 0 88 88">
    <g fill="none" fill-rule="evenodd">
        <g>
            <g>
                <g>
                    <g>
                        <g transform="translate(-1202.000000, -583.000000) translate(930.000000, 166.000000) translate(8.000000, 417.000000) translate(264.000000, 0.000000) translate(20.000000, 20.000000) translate(3.000000, 3.000000)">
                            <rect width="39" height="39" x="1.5" y="1.5" stroke="#222" stroke-width="3" rx="8"/>
                            <path fill="#222" fill-rule="nonzero" d="M18.262 32.608c2.666 0 5.02-.908 7.12-2.78 1.702 1.815 2.836 2.411 4.113 2.411.538 0 1.767-.432 1.455-1.421-.313-.99-1.15-.978-1.37-1.129-.364-.25-1.078-.513-2.44-1.932 1.334-1.73 2.241-3.8 2.752-6.212.028-.142.028-.284.028-.397 0-.88-.624-1.277-1.617-1.277-.765 0-1.163.37-1.276 1.078-.34 1.9-.88 3.631-1.787 4.993-1.22-1.22-2.979-3.177-4.908-5.446 4.284-1.617 5.22-3.688 5.22-5.645 0-2.922-2.156-4.851-5.588-4.851-3.433 0-5.73 2.184-5.73 5.134 0 1.646.993 3.149 2.042 4.454C11.88 21.63 11 24.013 11 26.198c0 3.772 3.092 6.41 7.262 6.41zm.583-13.957C17.252 16.851 17 16.233 17 15.346c0-1.613 1.118-2.714 2.852-2.714 1.706 0 2.937.982 2.937 2.487 0 1.666-1.707 2.672-3.944 3.532zm-.443 11.536c-1.988 0-4.77-1.214-4.77-3.981s2.147-3.593 4.135-4.627c2.567 3.018 4.444 5.254 5.549 6.428-1.519 1.481-3.175 2.18-4.914 2.18z"/>
                        </g>
                    </g>
                </g>
            </g>
        </g>
    </g>
</svg>
