<svg xmlns="http://www.w3.org/2000/svg" xmlns:xlink="http://www.w3.org/1999/xlink" width="56" height="56" viewBox="0 0 56 56">
    <defs>
        <path id="7v2hg6ftpa" d="M.921.715v45.424l10.723-9.868h32.04V.715H.921zM2.957 2.75h38.69v31.483H10.852l-7.894 7.263V2.751z"/>
    </defs>
    <g fill="none" fill-rule="evenodd">
        <g>
            <g>
                <g>
                    <g>
                        <path fill="#FFF" d="M2.957 3.019v38.746l7.894-7.263h30.797V3.019H2.958zM.921 46.405V.982h42.763v35.556h-32.04L.921 46.405z" transform="translate(-50 -480) translate(0 74) translate(50 406) translate(6.11 5.09)"/>
                        <g transform="translate(-50 -480) translate(0 74) translate(50 406) translate(6.11 5.09) translate(0 .267)"/>
                        <path fill="#FFF" d="M10.763 13.2L33.841 13.2 33.841 11.164 10.763 11.164zM10.763 19.989L25.696 19.989 25.696 17.952 10.763 17.952z" transform="translate(-50 -480) translate(0 74) translate(50 406) translate(6.11 5.09)"/>
                    </g>
                </g>
            </g>
        </g>
    </g>
</svg>
