<svg xmlns="http://www.w3.org/2000/svg" xmlns:xlink="http://www.w3.org/1999/xlink" width="40" height="40" viewBox="0 0 40 40">
    <defs>
        <path id="a" d="M0 0h30.464v30.836H0z"/>
    </defs>
    <g fill="none" fill-rule="evenodd" transform="translate(5 5)">
        <mask id="b" fill="#fff">
            <use xlink:href="#a"/>
        </mask>
        <path fill="#222" d="M2 13.969c0-6.6 5.369-11.97 11.969-11.97 6.599 0 11.968 5.37 11.968 11.97 0 6.6-5.369 11.969-11.968 11.969-6.6 0-11.969-5.37-11.969-11.97zm28.464 15.404l-6.309-5.877c2.338-2.5 3.782-5.843 3.782-9.527 0-7.702-6.266-13.97-13.968-13.97S0 6.268 0 13.97c0 7.702 6.267 13.969 13.969 13.969 3.298 0 6.328-1.156 8.72-3.074l6.412 5.972 1.363-1.463z" mask="url(#b)"/>
    </g>
</svg>
