<svg xmlns="http://www.w3.org/2000/svg" width="55" height="55" viewBox="0 0 55 55">
    <g fill="#FFF" fill-rule="evenodd">
        <path d="M6 6v33h15.032v7.5H13v2h30v-2h-8.033V39H50V6H6zm2 24.868h40.001V8H8v22.868zm0 2h40V37H8v-4.132zM23.033 46.5h9.934V39h-9.934v7.5z"/>
        <path d="M31.04 19.102c0-2.28-1.033-3.6-2.953-3.6-1.656 0-3.12 1.272-3.384 3.6h6.336zm-9.025 1.2c0-4.296 2.927-6.96 6.024-6.96 3.504 0 5.376 2.52 5.376 6.265 0 .528-.048 1.08-.12 1.392h-8.568c.215 2.52 1.8 4.032 4.08 4.032 1.176 0 2.184-.36 3.144-.984l.96 1.752c-1.224.817-2.736 1.393-4.464 1.393-3.576 0-6.432-2.545-6.432-6.89z"/>
    </g>
</svg>
