<svg xmlns="http://www.w3.org/2000/svg" width="55" height="55" viewBox="0 0 55 55">
    <path fill="#FFF" fill-rule="evenodd" d="M34.103 46.04c2.348-2.472 4.167-6.342 5.146-11.04h7.07a20.087 20.087 0 0 1-12.216 11.04zM9.681 35h7.07c.978 4.698 2.797 8.568 5.145 11.04A20.087 20.087 0 0 1 9.681 35zm-.723-14.101h7.45A40.436 40.436 0 0 0 16.392 33H8.921a19.92 19.92 0 0 1 .037-12.101zM21.896 7.96c-2.33 2.454-4.143 6.286-5.126 10.939H9.73c2.301-5.17 6.725-9.19 12.166-10.939zM28 7c4.01 0 7.554 4.964 9.153 11.899H18.847C20.447 11.964 23.99 7 28 7zm-9.57 26a37.184 37.184 0 0 1 .02-12.101H37.55A37.184 37.184 0 0 1 37.57 33H18.43zM28 47c-4.029 0-7.59-5.011-9.176-12h18.353C35.59 41.989 32.03 47 28 47zm20-20c0 2.09-.325 4.104-.92 6h-7.473a40.366 40.366 0 0 0-.014-12.101h7.45A19.92 19.92 0 0 1 47.998 27zm-1.729-8.101h-7.04c-.983-4.653-2.795-8.485-5.126-10.939 5.44 1.749 9.864 5.769 12.166 10.939zM28 5C15.87 5 6 14.869 6 27s9.87 22 22 22 22-9.869 22-22S40.13 5 28 5z"/>
</svg>
