<svg xmlns="http://www.w3.org/2000/svg" width="40" height="40" viewBox="0 0 40 40">
    <g fill="#222" fill-rule="evenodd">
        <path d="M14.843 4v14.593l-3.671-2.255L1 22.991V35.2l6.695-5.284 11.298 5.596 19.309-4.021-1.141-5.112-2.882.075V4H14.843zm10.655 21.139l-8.655-5.317V6h15.436v20.505l-7.85.206 1.069-1.572zM3 24.074l8.205-5.369 11.46 7.042-.994 1.464-7.75-4.492-1.003 1.73 9.36 5.426.767-1.128 12.522-.325.34 1.524-16.644 3.466L7.45 27.563 3 31.073v-6.999z"/>
        <path d="M27.581 9.772l-4.003 4.812-2.15-1.866-1.312 1.512 3.694 3.204 5.308-6.383z"/>
    </g>
</svg>
