<svg xmlns="http://www.w3.org/2000/svg" width="35" height="36" viewBox="0 0 35 36">
    <path fill="#222" d="M28.988 25.102c-.053-.324-.256-.601-.56-.766l-4.506-2.655-.037-.021c-.19-.095-.398-.143-.609-.142-.377 0-.738.144-.988.394l-1.33 1.331c-.057.054-.242.133-.298.135-.016 0-1.548-.111-4.368-2.932-2.815-2.816-2.934-4.353-2.935-4.353.001-.078.079-.263.134-.32l1.134-1.134c.4-.4.519-1.065.282-1.58l-2.504-4.713c-.182-.374-.536-.606-.928-.606-.278 0-.545.115-.755.324L7.63 11.15c-.297.295-.552.81-.608 1.226-.027.198-.575 4.933 5.915 11.426 5.51 5.51 9.806 5.94 10.992 5.94.145 0 .289-.007.433-.023.413-.056.928-.31 1.222-.605l3.089-3.09c.252-.253.367-.588.315-.92z"/>
</svg>
