<svg xmlns="http://www.w3.org/2000/svg" xmlns:xlink="http://www.w3.org/1999/xlink" width="150" height="65" viewBox="0 0 150 65">
    <defs>
        <path id="r1lqc6im4a" d="M0 0.042L42.939 0.042 42.939 19.536 0 19.536z"/>
    </defs>
    <g fill="none" fill-rule="evenodd">
        <g>
            <path fill="#FFF" d="M0 0H720V1280H0z" transform="translate(-285 -90)"/>
            <path fill="#F3F3F3" d="M0 0H720V1280H0z" transform="translate(-285 -90)"/>
            <g>
                <path fill="#E0002B" d="M143.633 15.134c-1.876 0-3.397 1.553-3.397 3.47v21.891c0 1.917 1.521 3.47 3.397 3.47s3.397-1.553 3.397-3.47V18.604c0-1.917-1.52-3.47-3.397-3.47m-15.087-9.07h-9.887c-4.575 0-8.283 3.788-8.283 8.461v16.9c0 1.917 1.52 3.47 3.397 3.47 1.876 0 3.396-1.553 3.396-3.47V14.926c0-1.869 1.484-3.384 3.314-3.384h6.239c1.83 0 3.313 1.515 3.313 3.384v16.5c0 1.916 1.52 3.47 3.397 3.47 1.876 0 3.397-1.554 3.397-3.47v-16.9c0-4.674-3.709-8.462-8.283-8.462m-24.975 9.07c-1.875 0-3.396 1.553-3.396 3.47v16.499c0 1.869-1.484 3.384-3.313 3.384h-6.24c-1.83 0-3.313-1.515-3.313-3.384v-16.5c0-1.916-1.521-3.47-3.397-3.47s-3.397 1.554-3.397 3.47v16.9c0 4.674 3.708 8.462 8.283 8.462h9.887c4.575 0 8.284-3.788 8.284-8.461v-16.9c0-1.917-1.521-3.47-3.398-3.47m-34.429 7.998H58.596c-1.91 0-3.136-1.33-3.136-2.97 0-1.64 1.225-2.969 3.136-2.969H73.1c1.528 0 2.767-1.264 2.767-2.825 0-1.56-1.239-2.826-2.767-2.826H57.621c-4.966 0-8.611 3.86-8.611 8.62 0 4.762 3.645 8.62 8.611 8.62h10.283c1.91-.003 3.138 1.324 3.142 2.965.003 1.64-1.231 2.97-3.142 2.976h-15.3c-1.527 0-2.766 1.265-2.766 2.825 0 1.56 1.239 2.825 2.766 2.825h16.614c4.946-.035 8.563-3.889 8.553-8.638-.009-4.76-3.663-8.613-8.629-8.603" transform="translate(-285 -90) translate(285 90)"/>
                <g transform="translate(-285 -90) translate(285 90) translate(0 15.16)">
                    <mask id="wsyy9yo59b" fill="#fff">
                        <use xlink:href="#r1lqc6im4a"/>
                    </mask>
                    <path fill="#60C0BD" d="M36.087 18.311c-.802 0-1.454-.638-1.454-1.422 0-.785.652-1.423 1.454-1.423.8 0 1.452.638 1.452 1.423 0 .784-.651 1.422-1.452 1.422zm0-4.069c-1.492 0-2.705 1.187-2.705 2.647 0 1.46 1.213 2.647 2.705 2.647 1.49 0 2.703-1.187 2.703-2.647 0-1.46-1.212-2.647-2.703-2.647zm4.72-14.2h-9.442c-1.639 0-2.663 1.736-1.844 3.125l5.336 9.046c.547.925 1.912.925 2.458 0l5.336-9.046c.82-1.389-.205-3.125-1.843-3.125zM23.73 1.085c-.819-1.389-2.867-1.389-3.686 0l-5.673 9.618-5.675-9.62c-.819-1.388-2.867-1.388-3.686 0L.288 9.088c-.819 1.389.205 3.125 1.844 3.125h24.477c1.638 0 2.662-1.736 1.843-3.125L23.73 1.085z" mask="url(#wsyy9yo59b)"/>
                </g>
                <path fill="#60C0BD" d="M143.877 2.33c-2.078 0-3.77 1.675-3.77 3.734 0 2.06 1.692 3.734 3.77 3.734 2.079 0 3.77-1.675 3.77-3.734s-1.691-3.733-3.77-3.733m0 9.797c-3.376 0-6.122-2.72-6.122-6.064 0-3.343 2.746-6.064 6.122-6.064C147.254 0 150 2.72 150 6.064s-2.746 6.064-6.123 6.064" transform="translate(-285 -90) translate(285 90)"/>
                <g fill="#C8C9C9">
                    <path d="M34.495 4.842H29.79c-.683 0-1.24-.537-1.24-1.198 0-.66.557-1.197 1.24-1.197h6.612c.699 0 1.266-.548 1.266-1.222C37.668.549 37.1 0 36.402 0H29.79c-2.078 0-3.77 1.636-3.77 3.644 0 2.01 1.692 3.644 3.77 3.644h4.705c.684 0 1.24.537 1.24 1.198 0 .66-.556 1.196-1.24 1.196h-6.76c-.7 0-1.266.548-1.266 1.223s.567 1.223 1.265 1.223h6.761c2.079 0 3.77-1.635 3.77-3.642 0-2.01-1.691-3.644-3.77-3.644M50.743 0c-.715 0-1.296.549-1.296 1.225v6.822c0 .9-.779 1.635-1.735 1.635h-3.587c-.956 0-1.735-.734-1.735-1.635V1.225C42.39.549 41.81 0 41.093 0c-.716 0-1.297.549-1.297 1.225v6.822c0 2.25 1.942 4.081 4.329 4.081h3.587c2.387 0 4.329-1.831 4.329-4.081V1.225C52.04.549 51.46 0 50.743 0M68.495 0c-.633 0-1.148.547-1.148 1.223v9.682c0 .676.515 1.223 1.148 1.223.634 0 1.148-.547 1.148-1.223V1.223C69.643.547 69.129 0 68.495 0M61.488 0h-3.589c-2.384 0-4.328 1.832-4.328 4.083v6.822c0 .675.581 1.223 1.298 1.223.716 0 1.297-.548 1.297-1.223V4.083c0-.903.778-1.636 1.733-1.636h3.589c.956 0 1.733.733 1.733 1.636v6.822c0 .675.582 1.223 1.298 1.223.716 0 1.297-.548 1.297-1.223V4.083C65.816 1.832 63.873 0 61.488 0M7.612 3.032c-.886 0-1.688.428-2.254 1.11-.566-.682-1.368-1.11-2.255-1.11C1.392 3.032 0 4.615 0 6.563v4.608c0 1.277 1.695 1.276 1.695 0V6.563c0-2.119 2.817-2.12 2.817 0v4.608c0 1.277 1.693 1.276 1.693 0V6.563c0-2.117 2.816-2.12 2.816 0v4.608c0 1.277 1.693 1.276 1.693 0V6.563c0-1.948-1.39-3.53-3.102-3.53M21.031 3.244c-.438-.324-1.06-.235-1.387.2l-2.798 3.703-2.816-3.722c-.328-.433-.948-.522-1.388-.198-.438.324-.527.938-.2 1.372l3.404 4.5v2.05c0 .54.443.98.991.98.547 0 .99-.44.99-.98V9.121l3.405-4.506c.327-.433.237-1.047-.201-1.372" transform="translate(-285 -90) translate(285 90) translate(45.918 51.545)"/>
                </g>
            </g>
        </g>
    </g>
</svg>
