<svg width="90" height="39" viewBox="0 0 90 39" xmlns="http://www.w3.org/2000/svg" xmlns:xlink="http://www.w3.org/1999/xlink">
    <defs>
        <path id="a" d="M0 0h25.764v11.68H0z"/>
    </defs>
    <g fill="none" fill-rule="evenodd">
        <path fill="#FFF" d="M-360-16h1920v2449H-360z"/>
        <path fill="#FFF" d="M-360-20h1920v80H-360z"/>
        <path d="M86.18 14.012c-1.126 0-2.038.93-2.038 2.079v13.115c0 1.149.912 2.079 2.038 2.079s2.038-.93 2.038-2.079V16.091c0-1.149-.912-2.08-2.038-2.08m-9.052-5.433h-5.933c-2.745 0-4.97 2.27-4.97 5.07v10.124c0 1.148.913 2.08 2.039 2.08 1.125 0 2.038-.932 2.038-2.08v-9.884c0-1.12.89-2.028 1.988-2.028h3.743c1.098 0 1.988.908 1.988 2.028v9.884c0 1.148.912 2.08 2.038 2.08s2.038-.932 2.038-2.08V13.647c0-2.8-2.225-5.069-4.97-5.069m-14.984 5.434c-1.126 0-2.038.93-2.038 2.079v9.885c0 1.12-.89 2.027-1.988 2.027h-3.744c-1.098 0-1.988-.908-1.988-2.027V16.09c0-1.149-.912-2.08-2.038-2.08-1.125 0-2.038.931-2.038 2.08v10.125c0 2.8 2.225 5.069 4.97 5.069h5.932c2.745 0 4.97-2.27 4.97-5.07V16.092c0-1.149-.912-2.08-2.038-2.08m-20.658 4.793h-6.327c-1.147 0-1.882-.797-1.882-1.78 0-.982.735-1.778 1.882-1.778h8.702c.916 0 1.66-.758 1.66-1.693s-.744-1.693-1.66-1.693h-9.287c-2.98 0-5.167 2.312-5.167 5.164 0 2.853 2.187 5.165 5.167 5.165h6.17c1.146-.002 1.882.793 1.884 1.776.002.982-.738 1.78-1.885 1.783h-9.18c-.916 0-1.66.758-1.66 1.692 0 .935.744 1.693 1.66 1.693h9.969c2.968-.021 5.138-2.33 5.131-5.175-.005-2.852-2.197-5.16-5.177-5.154" fill="#E0002B"/>
        <g transform="translate(0 14.053)">
            <mask id="b" fill="#fff">
                <use xlink:href="#a"/>
            </mask>
            <path d="M21.652 10.945a.863.863 0 0 1-.872-.851c0-.47.391-.853.872-.853.48 0 .872.382.872.853 0 .47-.391.851-.872.851zm0-2.437c-.895 0-1.623.71-1.623 1.586 0 .874.728 1.585 1.623 1.585s1.622-.71 1.622-1.585-.727-1.586-1.622-1.586zM24.485 0h-5.666c-.983 0-1.598 1.04-1.106 1.872l3.201 5.42a.862.862 0 0 0 1.475 0l3.202-5.42C26.082 1.04 25.468 0 24.485 0zM14.238.625c-.491-.832-1.72-.832-2.212 0L8.622 6.387 5.218.624c-.492-.832-1.72-.832-2.212 0L.173 5.42c-.492.832.123 1.872 1.106 1.872h14.686c.983 0 1.598-1.04 1.106-1.872L14.238.625z" fill="#60C0BD" mask="url(#b)"/>
        </g>
        <path d="M86.326 6.341c-1.247 0-2.261 1.004-2.261 2.237 0 1.234 1.014 2.237 2.261 2.237 1.248 0 2.262-1.003 2.262-2.237 0-1.233-1.014-2.237-2.262-2.237m0 5.87c-2.025 0-3.673-1.63-3.673-3.633s1.648-3.633 3.673-3.633c2.026 0 3.674 1.63 3.674 3.633s-1.648 3.633-3.674 3.633" fill="#60C0BD"/>
    </g>
</svg>
