<?xml version="1.0" encoding="UTF-8"?>
<svg width="70px" height="70px" viewBox="0 0 70 70" version="1.1" xmlns="http://www.w3.org/2000/svg" xmlns:xlink="http://www.w3.org/1999/xlink">
    <title>icon / 70px / survey</title>
    <g id="icon-/-70px-/-survey" stroke="none" stroke-width="1" fill="none" fill-rule="evenodd">
        <g id="Group-5-Copy-4" transform="translate(8.000000, 8.000000)" fill-rule="nonzero">
            <rect id="Rectangle" stroke="#6A758B" stroke-width="2" x="1" y="14" width="10" height="10"></rect>
            <path d="M40,12.8987186 L40,30 C40,31.1045695 39.1045695,32 38,32 L33,32 L33,30 L38,30 L38,14.8987186 L40,12.8987186 Z M37,5.99971863 L34.999,7.99971863 L16,8 L16,30 L21,30 L21,32 L16,32 C14.8954305,32 14,31.1045695 14,30 L14,8 C14,6.8954305 14.8954305,6 16,6 L37,5.99971863 Z M40,8 L40,10.0697186 L38,12.0697186 L38,8 L37.828,7.99971863 L39.3255227,6.50230807 C39.7392199,6.86872159 40,7.40390657 40,8 Z" id="Combined-Shape" fill="#6A758B"></path>
            <rect id="Rectangle" fill="#6A758B" x="14" y="6" width="2" height="2"></rect>
            <rect id="Rectangle-Copy-5" fill="#6A758B" x="14" y="30" width="2" height="2"></rect>
            <rect id="Rectangle-Copy-6" fill="#6A758B" x="38" y="30" width="2" height="2"></rect>
            <rect id="Rectangle-Copy-2" stroke="#6A758B" stroke-width="2" x="43" y="14" width="10" height="10"></rect>
            <rect id="Rectangle-Copy-2" fill="#6A758B" x="39" y="49" width="10" height="2"></rect>
            <rect id="Rectangle-Copy-3" fill="#6A758B" x="5" y="49" width="14" height="2"></rect>
            <g id="Rectangle-2" transform="translate(31.000000, 12.292893) rotate(-45.000000) translate(-31.000000, -12.292893) translate(20.500000, 6.792893)" fill="#EA644D">
                <path d="M3.70710678,0.292893219 L3.70610678,7.29289322 L20.7071068,7.29289322 L20.7071068,10.2928932 L0.707106781,10.2928932 L0.707106781,0.292893219 L3.70710678,0.292893219 Z" id="Combined-Shape"></path>
            </g>
            <g id="Group-4" transform="translate(20.000000, 25.000000)">
                <path d="M5,28 L5,25.2545234 L0,20.0932859 L0,13.7440516 L4.67817645,10.9292422 L4.67817645,14.3680516 L4.67817645,3.19937331 C4.67817645,1.72979232 5.86950723,0.538461538 7.33908823,0.538461538 C8.80866922,0.538461538 10,1.72979232 10,3.19937331 L10,10.9292422 L10,10.9292422 L16,13.5234237 L16.6563223,16.8130677 C16.8819432,17.9439339 16.8246911,19.1130248 16.4896542,20.2164347 L16,21.8290611 L16,21.8290611 L13,26.0459207 L13,28 L5,28 Z" id="Path"></path>
                <path d="M5,28 L5,25.2545234 L0.845290006,20.9658344 C0.30314575,20.4062073 2.90983776e-15,19.6576057 0,18.8784377 L0,15.4401647 C-1.48445441e-15,14.3877035 0.551515496,13.4122105 1.45332069,12.8696039 L4.67817645,10.9292422 L4.67817645,10.9292422 L4.67817645,14.3680516 L4.67817645,3.19937331 C4.67817645,1.72979232 5.86950723,0.538461538 7.33908823,0.538461538 C8.80866922,0.538461538 10,1.72979232 10,3.19937331 L10,10.9292422 L10,10.9292422 L14.9318303,13.8835578 C15.6156624,14.2931939 16.1083486,14.9581441 16.3011276,15.7316196 L16.7995775,17.7315197 C16.9307362,18.2577598 16.9167882,18.8097123 16.7592173,19.3286561 L16.142256,21.3605553 C16.048042,21.6708398 15.9041448,21.9637972 15.7161651,22.2280251 L13,26.0459207 L13,26.0459207 L13,28" id="Path" stroke="#6A758B" stroke-width="2" stroke-linejoin="round"></path>
            </g>
        </g>
    </g>
</svg>